<svg width="31" height="21" viewBox="0 0 31 21" fill="none" xmlns="http://www.w3.org/2000/svg">
<path d="M30.9999 6.77016H0V0.534506C0 0.239341 0.239341 0 0.534507 0H30.4655C30.7607 0 31 0.239341 31 0.534506L30.9999 6.77016Z" fill="#FAB446"/>
<path d="M30.4654 20.3103H0.534507C0.239341 20.3103 0 20.071 0 19.7758V13.5402H30.9999V19.7758C30.9999 20.071 30.7606 20.3103 30.4654 20.3103Z" fill="#73AF00"/>
<path d="M30.9999 6.77002H0V13.5398H30.9999V6.77002Z" fill="#F5F5F5"/>
<path d="M15.5 13.028C13.9159 13.028 12.6272 11.7393 12.6272 10.1552C12.6272 8.57106 13.9159 7.28238 15.5 7.28238C17.0842 7.28238 18.3728 8.57106 18.3728 10.1552C18.3728 11.7393 17.0842 13.028 15.5 13.028ZM15.5 7.81683C14.2105 7.81683 13.1616 8.86568 13.1616 10.1552C13.1616 11.4447 14.2105 12.4936 15.5 12.4936C16.7895 12.4936 17.8384 11.4447 17.8384 10.1552C17.8384 8.86568 16.7895 7.81683 15.5 7.81683Z" fill="#41479B"/>
<path d="M15.5 10.4808C15.6799 10.4808 15.8257 10.335 15.8257 10.1551C15.8257 9.97522 15.6799 9.82941 15.5 9.82941C15.3201 9.82941 15.1743 9.97522 15.1743 10.1551C15.1743 10.335 15.3201 10.4808 15.5 10.4808Z" fill="#41479B"/>
<path d="M15.5001 10.204L14.6724 10.2876L12.8945 10.204V10.1063L14.6724 10.0227L15.5001 10.1063V10.204Z" fill="#41479B"/>
<path d="M15.5 10.204L16.3277 10.2876L18.1056 10.204V10.1063L16.3277 10.0227L15.5 10.1063V10.204Z" fill="#41479B"/>
<path d="M15.4512 10.1552L15.3677 9.32752L15.4512 7.54962H15.549L15.6325 9.32752L15.549 10.1552H15.4512Z" fill="#41479B"/>
<path d="M15.4512 10.1552L15.3677 10.9829L15.4512 12.7608H15.549L15.6325 10.9829L15.549 10.1552H15.4512Z" fill="#41479B"/>
<path d="M15.4657 10.1897L14.8214 9.6636L13.6233 8.34731L13.6924 8.27823L15.0087 9.47633L15.5348 10.1207L15.4657 10.1897Z" fill="#41479B"/>
<path d="M15.4656 10.1897L15.9917 10.8341L17.308 12.0322L17.377 11.9631L16.1789 10.6468L15.5346 10.1207L15.4656 10.1897Z" fill="#41479B"/>
<path d="M15.4656 10.1207L15.9917 9.47633L17.308 8.27823L17.377 8.34731L16.1789 9.6636L15.5346 10.1897L15.4656 10.1207Z" fill="#41479B"/>
<path d="M15.4657 10.1207L14.8214 10.6468L13.6233 11.9631L13.6924 12.0322L15.0087 10.8341L15.5348 10.1897L15.4657 10.1207Z" fill="#41479B"/>
<path d="M15.5189 10.2003L14.7861 10.5942L13.1116 11.1974L13.0742 11.1071L14.6848 10.3496L15.4814 10.11L15.5189 10.2003Z" fill="#41479B"/>
<path d="M15.5189 10.2003L16.3155 9.96075L17.9261 9.20319L17.8887 9.11292L16.2142 9.71608L15.4814 10.11L15.5189 10.2003Z" fill="#41479B"/>
<path d="M15.4549 10.1738L15.0609 9.44109L14.4578 7.7666L14.548 7.72919L15.3056 9.33979L15.5452 10.1364L15.4549 10.1738Z" fill="#41479B"/>
<path d="M15.4551 10.1739L15.6947 10.9705L16.4522 12.5811L16.5425 12.5437L15.9393 10.8692L15.5454 10.1365L15.4551 10.1739Z" fill="#41479B"/>
<path d="M15.4814 10.2003L14.6848 9.96075L13.0742 9.20319L13.1116 9.11292L14.7861 9.71608L15.5189 10.11L15.4814 10.2003Z" fill="#41479B"/>
<path d="M15.4814 10.2003L16.2142 10.5942L17.8887 11.1974L17.9261 11.1071L16.3155 10.3496L15.5189 10.11L15.4814 10.2003Z" fill="#41479B"/>
<path d="M15.4551 10.1364L15.6947 9.33979L16.4522 7.72919L16.5425 7.7666L15.9393 9.44109L15.5454 10.1738L15.4551 10.1364Z" fill="#41479B"/>
<path d="M15.4549 10.1365L15.0609 10.8692L14.4578 12.5437L14.548 12.5811L15.3056 10.9705L15.5452 10.1739L15.4549 10.1365Z" fill="#41479B"/>
<path d="M15.4999 10.5945C15.7425 10.5945 15.9392 10.3978 15.9392 10.1551C15.9392 9.91251 15.7425 9.71582 15.4999 9.71582C15.2572 9.71582 15.0605 9.91251 15.0605 10.1551C15.0605 10.3978 15.2572 10.5945 15.4999 10.5945Z" fill="#F5F5F5"/>
<path d="M15.5 10.4186C15.6455 10.4186 15.7635 10.3007 15.7635 10.1552C15.7635 10.0097 15.6455 9.89172 15.5 9.89172C15.3545 9.89172 15.2366 10.0097 15.2366 10.1552C15.2366 10.3007 15.3545 10.4186 15.5 10.4186Z" fill="#41479B"/>
</svg>
