<svg width="21" height="28" viewBox="0 0 21 28" fill="none" xmlns="http://www.w3.org/2000/svg">
<path d="M19.6515 9.20338H15.8394V5.2797C15.8394 2.57156 13.4084 0.3685 10.4202 0.3685C7.43224 0.3685 5.00118 2.57156 5.00118 5.2797V9.20338H1.18888C0.743992 9.20338 0.383423 9.56416 0.383423 10.0088V20.3097C0.383423 24.4737 3.77117 27.8615 7.93523 27.8615H12.9054C17.0694 27.8615 20.4572 24.4737 20.4572 20.3097V10.0088C20.457 9.56416 20.0964 9.20338 19.6515 9.20338ZM6.61209 5.2797C6.61209 3.45987 8.32034 1.97942 10.4202 1.97942C12.5201 1.97942 14.2285 3.45987 14.2285 5.2797V9.20338H6.61209V5.2797ZM18.846 20.3097C18.846 23.5854 16.1811 26.2506 12.9052 26.2506H7.93523C4.65949 26.2506 1.99434 23.5854 1.99434 20.3097V10.8143H18.846V20.3097Z" fill="#6D6D6D"/>
</svg>
