<svg width="23" height="17" viewBox="0 0 23 17" fill="none" xmlns="http://www.w3.org/2000/svg">
<path d="M21.3877 9.62993H1.27053C1.02801 9.62993 0.795423 9.53406 0.623936 9.3634C0.45245 9.19275 0.35611 8.96128 0.35611 8.71994C0.35611 8.47859 0.45245 8.24713 0.623936 8.07647C0.795423 7.90581 1.02801 7.80994 1.27053 7.80994H21.3877C21.6302 7.80994 21.8628 7.90581 22.0343 8.07647C22.2058 8.24713 22.3021 8.47859 22.3021 8.71994C22.3021 8.96128 22.2058 9.19275 22.0343 9.3634C21.8628 9.53406 21.6302 9.62993 21.3877 9.62993Z" fill="#001B30"/>
<path d="M21.3877 2.65331H1.27053C1.02801 2.65331 0.795423 2.55744 0.623936 2.38678C0.45245 2.21612 0.35611 1.98466 0.35611 1.74331C0.35611 1.50197 0.45245 1.2705 0.623936 1.09985C0.795423 0.929188 1.02801 0.833313 1.27053 0.833313H21.3877C21.6302 0.833313 21.8628 0.929188 22.0343 1.09985C22.2058 1.2705 22.3021 1.50197 22.3021 1.74331C22.3021 1.98466 22.2058 2.21612 22.0343 2.38678C21.8628 2.55744 21.6302 2.65331 21.3877 2.65331Z" fill="#001B30"/>
<path d="M13.0337 16.6066H0.907105C0.602299 16.6066 0.35611 16.1994 0.35611 15.6966C0.35611 15.1937 0.603471 14.7866 0.907105 14.7866H13.0337C13.3385 14.7866 13.5847 15.1937 13.5847 15.6966C13.5847 16.1994 13.3385 16.6066 13.0337 16.6066Z" fill="#001B30"/>
</svg>
