<svg width="17" height="17" viewBox="0 0 17 17" fill="none" xmlns="http://www.w3.org/2000/svg">
<path d="M13.727 12.5791L13.7274 12.5793C14.5352 12.8477 15.2378 13.3637 15.7355 14.0542C16.2332 14.7446 16.5007 15.5743 16.4999 16.4255V16.4259C16.4999 16.4455 16.4921 16.4644 16.4782 16.4783C16.4643 16.4922 16.4455 16.5 16.4258 16.5H1.50403C1.48436 16.5 1.46552 16.4922 1.45164 16.4783C1.43773 16.4644 1.42993 16.4455 1.42993 16.4259L1.42993 16.4255C1.42921 15.5743 1.69669 14.7446 2.19439 14.0542C2.69209 13.3637 3.3947 12.8477 4.20241 12.5793L4.20287 12.5791L6.64602 11.7648L6.64721 11.7644C6.6545 11.7619 6.66217 11.7606 6.66996 11.7606H11.2597C11.2676 11.7606 11.2755 11.7619 11.2829 11.7644L11.2838 11.7648L13.727 12.5791Z" stroke="#6D6D6D"/>
<path d="M8.96162 1.42999C9.7422 1.43021 10.4907 1.74043 11.0426 2.29246C11.5946 2.84451 11.9046 3.59317 11.9046 4.37379V6.66542C11.8918 7.43693 11.5767 8.17265 11.0268 8.71414C10.4761 9.2565 9.73416 9.5605 8.96121 9.5605C8.18827 9.5605 7.44634 9.2565 6.89562 8.71414C6.34578 8.17265 6.03059 7.43693 6.01782 6.66542V4.37379C6.01782 3.59305 6.32797 2.84428 6.88004 2.29221C7.43208 1.74017 8.1808 1.43002 8.9615 1.42999H8.96162Z" stroke="#6D6D6D"/>
</svg>
